<?xml version="1.0" standalone="no"?>
<!DOCTYPE svg PUBLIC "-//W3C//DTD SVG 20010904//EN"
 "http://www.w3.org/TR/2001/REC-SVG-20010904/DTD/svg10.dtd">
<svg version="1.0" xmlns="http://www.w3.org/2000/svg"
 width="1920.000000pt" height="1920.000000pt" viewBox="0 0 1920.000000 1920.000000"
 preserveAspectRatio="xMidYMid meet">
<metadata>
Created by potrace 1.14, written by Peter Selinger 2001-2017
</metadata>
<g transform="translate(0.000000,1920.000000) scale(0.100000,-0.100000)"
fill="#000000" stroke="none">
<path d="M13449 14136 c-2 -2 -43 -7 -92 -11 -114 -8 -408 -80 -537 -131 -179
-70 -449 -252 -589 -397 -182 -188 -248 -269 -315 -389 -20 -38 -40 -68 -43
-68 -13 0 9 104 42 195 21 55 43 123 51 150 19 72 113 257 184 362 33 50 60
93 60 95 0 12 -279 -146 -386 -219 -23 -15 -86 -69 -140 -119 -55 -50 -124
-113 -155 -140 -30 -27 -91 -97 -134 -155 -73 -99 -103 -148 -203 -339 -49
-92 -93 -229 -116 -355 -3 -16 -8 -39 -10 -50 -2 -11 -7 -44 -11 -72 l-7 -53
-789 0 -789 0 0 815 0 815 -210 0 -210 0 0 -815 0 -815 -655 0 -655 0 0 -205
0 -205 138 0 137 0 -30 -19 c-30 -18 -341 -198 -402 -232 -135 -76 -514 -350
-593 -429 -4 -4 -45 -39 -149 -125 -52 -43 -340 -349 -381 -405 -14 -18 -61
-81 -106 -139 -118 -154 -298 -472 -376 -666 -61 -149 -155 -421 -164 -472 -2
-13 -6 -35 -9 -50 -3 -16 -15 -82 -26 -148 -11 -66 -24 -145 -29 -175 -9 -53
-6 -674 3 -716 3 -12 8 -45 11 -75 4 -30 9 -70 11 -89 3 -19 7 -57 10 -85 3
-27 8 -61 10 -75 3 -14 10 -47 15 -75 41 -236 166 -624 298 -926 34 -79 155
-288 245 -424 83 -126 157 -235 167 -245 3 -3 39 -45 80 -95 88 -105 352 -369
472 -471 193 -163 554 -399 737 -480 31 -14 70 -32 86 -39 72 -32 331 -126
450 -163 129 -41 298 -79 510 -117 110 -19 640 -26 810 -11 50 5 107 10 129
11 36 3 107 12 146 20 9 2 35 6 56 9 61 10 245 51 399 90 6 2 24 6 40 10 54
14 268 87 345 119 83 33 334 160 399 201 22 14 43 26 45 26 12 0 140 80 226
142 52 37 106 76 120 85 14 10 56 47 95 83 38 36 74 70 81 75 123 107 328 333
409 450 135 195 238 350 252 380 7 17 26 53 41 80 80 145 140 264 152 300 7
22 16 45 20 50 4 6 13 28 20 50 7 22 16 45 20 50 12 18 67 175 121 345 42 134
98 361 124 500 3 14 7 36 10 50 4 21 19 101 40 225 3 17 10 55 15 85 6 30 13
82 16 115 3 33 9 98 14 145 9 84 6 670 -4 805 -17 246 -20 275 -32 373 -7 58
-10 79 -18 162 -8 73 -7 70 -35 235 -11 66 -23 136 -25 155 -3 19 -14 78 -26
130 -19 83 -73 351 -86 420 -3 14 -13 68 -24 120 -10 52 -24 122 -29 155 -15
88 -21 124 -33 185 -5 30 -11 64 -13 75 -2 11 -11 58 -20 105 -9 47 -18 96
-20 110 -1 14 -6 45 -10 70 -29 184 -26 645 5 820 5 30 12 71 14 90 24 188
281 657 557 1017 52 68 108 142 126 165 17 24 57 70 87 102 31 33 56 61 56 63
0 4 -16 4 -21 -1z m-4393 -4588 c-3 -1366 -5 -2802 -5 -3192 l-1 -709 -92 7
c-109 8 -161 15 -223 30 -16 5 -91 23 -165 41 -164 40 -343 97 -430 137 -180
83 -209 95 -283 127 -58 25 -261 142 -265 153 -2 4 -7 8 -12 8 -8 0 -130 78
-140 89 -3 3 -23 19 -45 36 -22 16 -44 34 -50 41 -5 6 -19 17 -31 25 -73 49
-325 293 -427 414 -37 44 -73 87 -80 95 -18 20 -113 149 -175 237 -97 137
-222 412 -311 683 -34 105 -92 365 -106 475 -3 17 -12 75 -21 130 -25 145 -25
704 0 842 2 10 7 41 10 68 15 106 76 322 166 580 21 61 41 121 45 135 26 88
166 345 289 530 76 113 145 212 154 221 9 9 28 29 42 45 14 16 52 61 85 99 97
113 315 324 380 368 33 22 67 47 76 56 77 76 130 116 284 218 79 52 221 136
235 139 3 0 39 17 80 36 217 103 282 133 360 165 47 19 92 37 100 39 8 2 66
17 129 34 139 36 236 57 316 65 33 4 62 9 64 11 2 2 15 4 28 4 l23 0 -4 -2482z"/>
</g>
</svg>
